<svg xmlns="http://www.w3.org/2000/svg" viewBox="0 0 20.721 31.068"><defs><style>.a{fill:none;stroke:#fff;stroke-linecap:round;stroke-linejoin:round;stroke-miterlimit:10;stroke-width:2px;}</style></defs><g transform="translate(-106.472 -8.823)"><path class="a" d="M153.375,9.823A9.366,9.366,0,0,0,144.8,22.954l.029.067.31.627.015.021,7.09,14.416.156.3a1.187,1.187,0,0,0,2.008-.111l.073-.155,7.1-14.454.015-.022.311-.635.023-.045a9.364,9.364,0,0,0-8.559-13.145Zm4.453,13.146a5.846,5.846,0,1,1,1.389-3.78A5.842,5.842,0,0,1,157.828,22.969Z" transform="translate(-36.538)"/><path class="a" d="M160.5,20.469a5.845,5.845,0,1,1-5.848-5.849A5.832,5.832,0,0,1,160.5,20.469Z" transform="translate(-37.82 -1.281)"/><path class="a" d="M160.5,20.469a5.845,5.845,0,1,1-5.848-5.849A5.832,5.832,0,0,1,160.5,20.469Z" transform="translate(-37.82 -1.281)"/></g></svg>