<svg xmlns="http://www.w3.org/2000/svg" viewBox="0 0 16.683 16.65"><defs><style>.a{fill:#fff;}</style></defs><path class="a" d="M65.923,30.4h3.459V41.515H65.921V30.4Zm1.73-5.531a2,2,0,1,1-2.005,2.008,2.009,2.009,0,0,1,2.005-2.008" transform="translate(-65.648 -24.865)"/><path class="a" d="M69.365,28.452h3.316v1.519h.046a3.633,3.633,0,0,1,3.27-1.8c3.5,0,4.15,2.3,4.15,5.3v6.1H76.69V34.165c0-1.292-.017-2.953-1.8-2.953s-2.072,1.41-2.072,2.859v5.5H69.367V28.452Z" transform="translate(-63.464 -22.921)"/></svg>