<svg xmlns="http://www.w3.org/2000/svg" viewBox="0 0 19.323 30.53"><defs><style>.a{fill:#fff;}</style></defs><path class="a" d="M219.661,61.882A9.672,9.672,0,0,0,210,71.543V82.75a9.661,9.661,0,1,0,19.323,0V71.543A9.672,9.672,0,0,0,219.661,61.882Zm7.453,20.868a7.453,7.453,0,1,1-14.906,0V71.543a7.453,7.453,0,1,1,14.906,0Z" transform="translate(-210 -61.882)"/><path class="a" d="M230.165,81.632a1.355,1.355,0,0,0-1.353,1.353V86.3a1.353,1.353,0,1,0,2.706,0V82.985A1.355,1.355,0,0,0,230.165,81.632Z" transform="translate(-220.504 -72.909)"/></svg>