<svg xmlns="http://www.w3.org/2000/svg" viewBox="0 0 9.511 13.228"><defs><style>.a{fill:#a2d3f6;}</style></defs><g transform="translate(0 0)"><path class="a" d="M119.9,610.115a1.625,1.625,0,0,0-1.605,1.641,1.647,1.647,0,0,0,.551,1.237v.817a1.058,1.058,0,1,0,2.115,0v-.822a1.648,1.648,0,0,0,.544-1.231A1.625,1.625,0,0,0,119.9,610.115Zm.41,2.294a.434.434,0,0,0-.194.363v1.036a.213.213,0,1,1-.425,0v-1.032a.435.435,0,0,0-.2-.365.778.778,0,0,1-.355-.656.76.76,0,1,1,1.52,0A.778.778,0,0,1,120.312,612.409Z" transform="translate(-115.147 -603.135)"/><path class="a" d="M107.167,572.94h-.51v-2.164a3.322,3.322,0,1,0-6.642,0v2.164h-.508a.938.938,0,0,0-.926.947v5.775a.938.938,0,0,0,.926.947h7.659a.938.938,0,0,0,.926-.947v-5.775A.938.938,0,0,0,107.167,572.94Zm-6.306-2.164a2.476,2.476,0,1,1,4.952,0v2.164h-4.952Zm6.387,8.886a.082.082,0,0,1-.081.083H99.508a.082.082,0,0,1-.081-.083v-5.775a.082.082,0,0,1,.081-.083h7.659a.082.082,0,0,1,.081.083Z" transform="translate(-98.582 -567.381)"/></g></svg>