<svg xmlns="http://www.w3.org/2000/svg" viewBox="0 0 10.118 11.95"><defs><style>.a{fill:#278ec8;fill-rule:evenodd;}</style></defs><path class="a" d="M47.708,23.675a3.938,3.938,0,0,1,1.159-2.839c.3-.3.7-.849,1.149-.79.467.063.807.632,1.043,1.036.4.69,1.056,1.705.452,2.474-.289.374-.739.569-1,.964a1.431,1.431,0,0,0,.075,1.345,7.777,7.777,0,0,0,1.843,2.452,1.6,1.6,0,0,0,1.2.56c.454-.082.805-.64,1.14-.938.861-.767,1.8.274,2.437.9a1.665,1.665,0,0,1,.617,1.149c-.02.473-.585.873-.9,1.155a3.208,3.208,0,0,1-2.938.763,6.509,6.509,0,0,1-2.951-1.853,14.792,14.792,0,0,1-2.25-2.939,7.571,7.571,0,0,1-.744-1.59,8.52,8.52,0,0,1-.336-1.846C47.708,23.059,47.745,24.006,47.708,23.675Z" transform="translate(-47.708 -20.041)"/></svg>