<svg xmlns="http://www.w3.org/2000/svg" viewBox="0 0 16.041 13.037"><defs><style>.a{fill:#fff;}</style></defs><path class="a" d="M88.375,39.14a9.3,9.3,0,0,0,9.362-9.367c0-.138,0-.283-.006-.425a6.8,6.8,0,0,0,1.64-1.7,6.508,6.508,0,0,1-1.888.518,3.3,3.3,0,0,0,1.445-1.819,6.683,6.683,0,0,1-2.086.8,3.293,3.293,0,0,0-5.7,2.248,3.484,3.484,0,0,0,.083.754,9.351,9.351,0,0,1-6.78-3.439A3.277,3.277,0,0,0,85.467,31.1a3.263,3.263,0,0,1-1.492-.411v.04a3.291,3.291,0,0,0,2.638,3.227,3.419,3.419,0,0,1-.868.116,3.254,3.254,0,0,1-.616-.062A3.293,3.293,0,0,0,88.2,36.3a6.636,6.636,0,0,1-4.091,1.408,7.143,7.143,0,0,1-.783-.048,9.3,9.3,0,0,0,5.045,1.48" transform="translate(-83.33 -26.103)"/></svg>