<svg xmlns="http://www.w3.org/2000/svg" viewBox="0 0 11.026 13.496"><defs><style>.a{fill:#a2d3f6;}</style></defs><path class="a" d="M104.217,331.855l-2.7-1.079a.61.61,0,0,1-.149-.148v-.577a2.862,2.862,0,0,0,1.156-1.826,2.14,2.14,0,0,0,1.172-1.295,1.882,1.882,0,0,0-.222-1.572,1.1,1.1,0,0,0-.559-.4V324.4a3.571,3.571,0,1,0-7.14,0v.559a1.069,1.069,0,0,0-.528.388,1.937,1.937,0,0,0-.212,1.6,2.107,2.107,0,0,0,1.134,1.28,2.82,2.82,0,0,0,1.155,1.861v.543a.591.591,0,0,1-.149.149l-2.7,1.079a1.145,1.145,0,0,0-.644,1.155.437.437,0,0,0,.126.308c.824.83,5.343.929,5.387.929s4.563-.1,5.387-.929a.437.437,0,0,0,.126-.308A1.144,1.144,0,0,0,104.217,331.855Zm-4.869,1.527a18.191,18.191,0,0,1-4.642-.589.244.244,0,0,1,.073-.131l2.747-1.1a.433.433,0,0,0,.065-.033,1.166,1.166,0,0,0,.581-.884v-.8a.434.434,0,0,0-.211-.374A1.958,1.958,0,0,1,97,328v-.073a.431.431,0,0,0-.3-.414,1.377,1.377,0,0,1-.852-.81,1.1,1.1,0,0,1,.075-.837.243.243,0,0,1,.24-.1.42.42,0,0,0,.315-.1.436.436,0,0,0,.145-.338V325.3c0-.021,0-.042,0-.063V324.4a2.726,2.726,0,1,1,5.45,0v.835c0,.019,0,.038,0,.057v.033a.437.437,0,0,0,.128.323.418.418,0,0,0,.319.121l.022,0a.269.269,0,0,1,.261.111,1.043,1.043,0,0,1,.085.813,1.4,1.4,0,0,1-.852.809.425.425,0,0,0-.115.042.434.434,0,0,0-.223.381v.068a1.964,1.964,0,0,1-.966,1.457.434.434,0,0,0-.2.37v.829a1.166,1.166,0,0,0,.581.884.417.417,0,0,0,.065.033l2.747,1.1a.243.243,0,0,1,.073.13A18.2,18.2,0,0,1,99.348,333.382Z" transform="translate(-93.834 -320.75)"/></svg>